<?xml version="1.0" standalone="no"?>
<!DOCTYPE svg PUBLIC "-//W3C//DTD SVG 20010904//EN"
 "http://www.w3.org/TR/2001/REC-SVG-20010904/DTD/svg10.dtd">
<svg version="1.0" xmlns="http://www.w3.org/2000/svg"
 width="171.000000pt" height="204.000000pt" viewBox="0 0 171.000000 204.000000"
 preserveAspectRatio="xMidYMid meet">
<metadata>
Created by potrace 1.16, written by Peter Selinger 2001-2019
</metadata>
<g transform="translate(0.000000,204.000000) scale(0.100000,-0.100000)"
fill="#000000" stroke="none">
<path d="M862 1753 l-2 -132 -54 -30 c-30 -17 -57 -38 -60 -47 -3 -9 -6 -53
-6 -100 l0 -84 -50 -25 -50 -25 0 91 c0 50 -3 89 -8 87 -4 -1 -31 -16 -60 -32
l-52 -29 0 -93 0 -94 -41 -25 c-71 -45 -69 -47 -69 49 0 88 -5 98 -40 76 -13
-8 -16 6 -21 98 l-5 107 -2 -113 c-2 -109 -3 -113 -27 -124 l-25 -11 0 -170
c0 -135 3 -168 13 -164 7 3 88 35 179 71 92 37 213 79 269 93 96 24 107 25
173 13 83 -15 223 -62 388 -131 65 -27 120 -49 123 -49 3 0 5 76 5 169 0 161
-1 170 -20 176 -18 6 -20 15 -20 121 0 69 -4 114 -10 114 -6 0 -10 -42 -10
-105 0 -104 0 -106 -21 -95 -11 7 -22 10 -25 8 -2 -3 -5 -41 -6 -86 -1 -50 -6
-82 -12 -82 -6 0 -32 14 -58 30 l-48 30 0 93 0 94 -52 29 c-29 16 -56 31 -60
32 -5 2 -8 -37 -8 -87 0 -50 -2 -91 -5 -91 -2 0 -24 12 -49 27 l-45 27 -3 96
-3 95 -55 33 -55 32 -5 133 -6 132 -2 -132z"/>
<path d="M830 1083 c-76 -13 -195 -52 -353 -115 -134 -53 -181 -77 -187 -92
-16 -42 -33 -214 -33 -336 -1 -133 9 -187 45 -240 26 -37 114 -101 171 -124
l37 -14 0 177 c0 244 19 305 130 404 86 78 207 104 321 71 114 -33 200 -115
240 -229 16 -46 19 -82 19 -235 0 -144 3 -180 14 -180 19 0 104 47 149 82 94
75 113 203 76 518 -15 134 9 113 -235 211 -189 76 -333 113 -394 102z"/>
<path d="M773 752 c-100 -36 -171 -115 -192 -213 -6 -28 -11 -128 -11 -223 0
-149 2 -175 16 -180 42 -16 42 -15 46 197 3 184 5 205 25 242 44 82 115 125
206 126 71 1 130 -25 175 -77 55 -62 62 -95 62 -308 l0 -187 28 3 27 3 0 205
c0 187 -2 209 -21 251 -65 139 -223 210 -361 161z"/>
</g>
</svg>
